<?xml version="1.0" encoding="UTF-8" standalone="no"?>
<!DOCTYPE svg PUBLIC "-//W3C//DTD SVG 1.1//EN" "http://www.w3.org/Graphics/SVG/1.1/DTD/svg11.dtd">
<svg version="1.1" xmlns="http://www.w3.org/2000/svg" xmlns:xlink="http://www.w3.org/1999/xlink" preserveAspectRatio="xMidYMid meet" viewBox="0 0 640 640" width="640" height="640"><defs><path d="M256 64C150 64 64 150 64 256C64 362 150 448 256 448C362 448 448 362 448 256C448 150 362 64 256 64Z" id="b2Chu23JV7"></path><path d="M247 357.22C207.7 330.54 190.68 312.22 181.3 300.81C161.3 276.44 151.72 251.41 152 224.31C152.31 193.25 177.22 167.98 207.53 167.98C227.93 167.98 242.53 178.61 251.63 188.39C253.91 190.8 257.7 190.9 260.11 188.63C260.19 188.55 260.27 188.47 260.35 188.39C269.46 178.61 284.05 167.98 304.45 167.98C334.76 167.98 359.67 193.25 359.98 224.31C360.26 251.41 350.67 276.44 330.68 300.81C321.3 312.25 304.28 330.54 264.98 357.22C262.33 359.02 259.2 359.99 256 360C252.79 360 249.65 359.03 247 357.22Z" id="d3JeYmfbh"></path></defs><g><g><g><use xlink:href="#b2Chu23JV7" opacity="1" fill="#23d46e" fill-opacity="0"></use><g><use xlink:href="#b2Chu23JV7" opacity="1" fill-opacity="0" stroke="#0a6828" stroke-width="32" stroke-opacity="1"></use></g></g><g><use xlink:href="#d3JeYmfbh" opacity="1" fill="#08993c" fill-opacity="1"></use><g><use xlink:href="#d3JeYmfbh" opacity="1" fill-opacity="0" stroke="#000000" stroke-width="1" stroke-opacity="0"></use></g></g></g></g></svg>